<svg xmlns="http://www.w3.org/2000/svg" xmlns:cc="http://web.resource.org/cc/" xmlns:svg="http://www.w3.org/2000/svg" xmlns:xlink="http://www.w3.org/1999/xlink" id="svg2832" width="64" height="64"><defs id="defs2834"><linearGradient id="linearGradient11797"><stop style="stop-color:#151515;stop-opacity:1" id="stop11799" offset="0"/><stop style="stop-color:#666;stop-opacity:1" id="stop11801" offset="1"/></linearGradient><linearGradient id="linearGradient10016"><stop style="stop-color:#7b7b7b;stop-opacity:1" id="stop10018" offset="0"/><stop style="stop-color:silver;stop-opacity:1" id="stop10020" offset="1"/></linearGradient><linearGradient id="linearGradient9113"><stop style="stop-color:#f6f400;stop-opacity:.98969072" id="stop9115" offset="0"/><stop style="stop-color:#00f6e0;stop-opacity:0" id="stop9117" offset="1"/></linearGradient><linearGradient id="linearGradient7333"><stop style="stop-color:#00f644;stop-opacity:1" id="stop7335" offset="0"/><stop style="stop-color:#00f644;stop-opacity:0" id="stop7337" offset="1"/></linearGradient><linearGradient id="linearGradient7325"><stop style="stop-color:black;stop-opacity:1" id="stop7327" offset="0"/><stop style="stop-color:black;stop-opacity:0" id="stop7329" offset="1"/></linearGradient><linearGradient id="linearGradient6428"><stop style="stop-color:#00f644;stop-opacity:1" id="stop6430" offset="0"/><stop id="stop6436" offset=".5" style="stop-color:#07ee48;stop-opacity:1"/><stop style="stop-color:#31c55a;stop-opacity:1" id="stop6432" offset="1"/></linearGradient><linearGradient id="linearGradient4628"><stop style="stop-color:#00ae9b;stop-opacity:1" id="stop4630" offset="0"/><stop id="stop5523" offset="0" style="stop-color:#7ff6dc;stop-opacity:1"/><stop style="stop-color:#fff6dc;stop-opacity:1" id="stop4632" offset="1"/></linearGradient><linearGradient id="linearGradient3727"><stop style="stop-color:#e4e4e4;stop-opacity:1" id="stop3729" offset="0"/><stop style="stop-color:#e4e4e4;stop-opacity:0" id="stop3731" offset="1"/></linearGradient><linearGradient id="linearGradient4634" x1="24.955" x2="52.891" y1="50.545" y2="1.336" gradientTransform="translate(-0.909091,4.5455e-2)" gradientUnits="userSpaceOnUse" xlink:href="#linearGradient4628"/><radialGradient id="radialGradient6434" cx="44.445" cy="51.062" r="26.555" fx="44.445" fy="51.062" gradientTransform="matrix(0.274222,1.766517,-0.900207,0.139743,70.41489,-34.28419)" gradientUnits="userSpaceOnUse" xlink:href="#linearGradient6428"/><radialGradient id="radialGradient7339" cx="18.455" cy="23.909" r="7.364" fx="18.455" fy="23.909" gradientTransform="matrix(1.370371,-0.447402,0.269785,0.541834,-13.28536,19.21096)" gradientUnits="userSpaceOnUse" xlink:href="#linearGradient7333"/><radialGradient id="radialGradient9119" cx="26.412" cy="27.891" r="21.727" fx="26.412" fy="27.891" gradientTransform="matrix(0.652236,-0.286894,0.16827,0.332143,4.49204,26.42717)" gradientUnits="userSpaceOnUse" xlink:href="#linearGradient9113"/><linearGradient id="linearGradient10025" x1="23.7" x2="23.7" y1="31.383" y2="26.986" gradientTransform="matrix(0.856099,0,0,1.07948,4.153545,3.406762)" gradientUnits="userSpaceOnUse" xlink:href="#linearGradient10016"/><linearGradient id="linearGradient11803" x1="9.4" x2="10.225" y1="37.941" y2="28.753" gradientUnits="userSpaceOnUse" xlink:href="#linearGradient11797"/></defs><metadata id="metadata2837"/><g id="layer1"><path style="opacity:1;fill:url(#radialGradient6434);fill-opacity:1;stroke:#000a20;stroke-linejoin:round;stroke-opacity:1;stroke-width:2.1;stroke-miterlimit:4;stroke-dasharray:none" id="path4636" d="M 58.181818 37.18182 A 26.454546 24.09091 0 1 1 5.2727261,37.18182 A 26.454546 24.09091 0 1 1 58.181818 37.18182 z" transform="translate(0.227274,-6.545455)"/><path style="opacity:1;fill:url(#radialGradient7339);fill-opacity:1;stroke:none;stroke-width:.2;stroke-linejoin:round;stroke-miterlimit:4;stroke-dasharray:none;stroke-opacity:1" id="path6438" d="M 28.545455 23.90909 A 10.090909 5.7272725 0 1 1 8.363637,23.90909 A 10.090909 5.7272725 0 1 1 28.545455 23.90909 z" transform="matrix(0.693694,0,0,1.142857,2.925471,-6.779218)"/><path style="opacity:1;fill:url(#radialGradient9119);fill-opacity:1;stroke:none;stroke-width:.2;stroke-linejoin:round;stroke-miterlimit:4;stroke-dasharray:none;stroke-opacity:1" id="path8226" d="M 49.090908 29 A 21.727272 17.363636 0 1 1 5.636364,29 A 21.727272 17.363636 0 1 1 49.090908 29 z" transform="matrix(1.146444,0,0,1.230367,-3.552682,-0.316998)"/><path style="fill:url(#linearGradient10025);fill-opacity:1;stroke:url(#linearGradient11803);stroke-width:.78456962;stroke-linejoin:round;stroke-miterlimit:4;stroke-dasharray:none;stroke-opacity:1" id="rect9121" d="M 0.41784148,28.332958 L 62.523821,28.332958 C 63.830373,29.494418 63.3953,30.65588 63.808782,31.81734 C 64.046239,33.492648 62.451676,34.68958 62.625975,35.736243 C 62.853655,37.103462 63.008016,37.72247 62.523821,38.735226 L 1.1669268,37.925614 C 1.046082,35.436985 2.744444,36.592822 2.6771052,34.741872 C 2.6327438,33.522506 0.53858474,33.490793 2.4121595,31.252462 C 1.4945734,30.552533 0.3831067,30.062151 0.41784148,28.332958 z"/><path style="opacity:1;fill:url(#linearGradient4634);fill-opacity:1;fill-rule:evenodd;stroke:#1863ff;stroke-width:1px;stroke-linecap:butt;stroke-linejoin:round;marker-start:none;stroke-opacity:1" id="path2840" d="M 28.909091,0.95454592 L 53.272727,0.95454595 L 33.636363,23.136364 L 52.727272,23.863637 L 19.454545,63.5 L 27.636363,33.5 L 15.999999,31.863637 L 28.909091,0.95454592 z"/></g></svg>