<svg xmlns="http://www.w3.org/2000/svg" xmlns:xlink="http://www.w3.org/1999/xlink" id="svg1872" width="16" height="16" version="1.1"><defs id="defs1874"><linearGradient id="linearGradient2835"><stop id="stop2837" offset="0" style="stop-color:#6b5f5d;stop-opacity:1"/><stop style="stop-color:#988683;stop-opacity:.91764706" id="stop2841" offset=".921"/><stop id="stop2839" offset="1" style="stop-color:#c6aeaa;stop-opacity:0"/></linearGradient><linearGradient id="linearGradient2825"><stop style="stop-color:white;stop-opacity:1" id="stop2827" offset="0"/><stop id="stop2843" offset=".5" style="stop-color:white;stop-opacity:.49803922"/><stop style="stop-color:#c81e00;stop-opacity:0" id="stop2829" offset="1"/></linearGradient><linearGradient id="linearGradient2778"><stop style="stop-color:#0010a3;stop-opacity:1" id="stop2780" offset="0"/><stop style="stop-color:#96aeff;stop-opacity:1" id="stop2782" offset="1"/></linearGradient><linearGradient id="linearGradient2770"><stop style="stop-color:#0b0a60;stop-opacity:1" id="stop2772" offset="0"/><stop style="stop-color:#004b7e;stop-opacity:1" id="stop2774" offset="1"/></linearGradient><linearGradient id="linearGradient2776" x1="4.212" x2="8.942" y1="1.269" y2="12.576" gradientUnits="userSpaceOnUse" xlink:href="#linearGradient2770"/><linearGradient id="linearGradient2786" x1=".845" x2="10.447" y1="-2.476" y2="7.576" gradientUnits="userSpaceOnUse" xlink:href="#linearGradient2778"/><linearGradient id="linearGradient2801" x1="7.567" x2="11.453" y1="9.419" y2="13.719" gradientTransform="matrix(0.922118,0,0,0.922118,0.175474,0.130764)" gradientUnits="userSpaceOnUse" xlink:href="#linearGradient2778"/></defs><metadata id="metadata1877"/><g id="layer1"><path style="opacity:1;fill:url(#linearGradient2786);fill-opacity:1;stroke:url(#linearGradient2776);stroke-width:.99201567;stroke-linejoin:round;stroke-miterlimit:4;stroke-dasharray:none;stroke-opacity:1" id="path1880" d="M 15.316832 7.5757427 A 7.6809406 7.5232673 0 1 1 -0.045049667,7.5757427 A 7.6809406 7.5232673 0 1 1 15.316832 7.5757427 z" transform="matrix(0.933453,0,0,0.933453,0.463104,0.424544)"/><path style="opacity:1;fill:url(#linearGradient2801);fill-opacity:1;stroke:none;stroke-width:.88499999;stroke-linejoin:round;stroke-miterlimit:4;stroke-dasharray:none;stroke-opacity:1" id="path2788" d="M 9.5407355,6.7873036 C 9.1751305,6.8110199 8.8203305,6.8737522 8.4745365,6.9890169 C 5.833184,7.8694678 5.6597197,8.3365829 0.83824667,7.161914 C 0.83292457,7.2695189 0.83824667,7.3700027 0.83824667,7.4788921 C 0.83824667,11.128625 3.8550112,14.106615 7.5812348,14.106615 C 11.103631,14.106615 13.989222,11.456573 14.295408,8.0840321 C 13.322861,7.5669099 11.368764,6.6687221 9.5407355,6.7873036 z"/></g></svg>